<svg width="36" height="36" viewBox="0 0 36 36" fill="none" xmlns="http://www.w3.org/2000/svg">
<g id="fi_2889003" clip-path="url(#clip0_17_3785)">
<g id="Vector">
<mask id="path-1-outside-1_17_3785" maskUnits="userSpaceOnUse" x="0.231934" y="0.3396" width="35" height="35" fill="black">
<rect fill="white" x="0.231934" y="0.3396" width="35" height="35"/>
<path d="M32.9761 24.5878C31.3201 22.9318 28.8721 22.3918 26.6761 23.1838L21.6001 18.0718L26.7121 12.9598C28.9081 13.7518 31.3561 13.2478 33.0121 11.5558C34.6321 9.93579 35.2081 7.45179 34.4161 5.29179C34.3441 5.11179 34.2001 5.00379 34.0201 4.93179C33.8401 4.89579 33.6601 4.93179 33.5161 5.07579L30.4201 8.17179L27.8641 5.61579L30.9601 2.59179C31.1041 2.44779 31.1401 2.26779 31.1041 2.08779C31.0681 1.90779 30.9241 1.76379 30.7441 1.69179C28.5841 0.899788 26.1001 1.47579 24.4801 3.09579C22.8241 4.75179 22.2841 7.19979 23.0761 9.39579L18.0001 14.5078L12.8881 9.39579C13.7161 7.19979 13.1761 4.78779 11.5201 3.09579C9.90012 1.47579 7.41612 0.899788 5.25612 1.69179C5.07612 1.76379 4.96812 1.90779 4.89612 2.08779C4.82412 2.26779 4.89612 2.44779 5.04012 2.59179L8.13612 5.68779L5.58012 8.24379L2.48412 5.14779C2.34012 5.00379 2.16012 4.96779 1.98012 5.00379C1.80012 5.03979 1.65612 5.18379 1.58412 5.36379C0.792122 7.52379 1.36812 10.0078 2.98812 11.6278C4.64412 13.2838 7.09212 13.8238 9.28812 13.0318L14.4001 18.0718L9.32412 23.1838C7.12812 22.3918 4.68012 22.8958 3.02412 24.5878C1.40412 26.2078 0.828122 28.6918 1.62012 30.8518C1.69212 31.0318 1.83612 31.1398 2.01612 31.2118C2.19612 31.2478 2.37612 31.2118 2.52012 31.0678L5.61612 27.9718L8.17212 30.5278L5.04012 33.5878C4.89612 33.7318 4.86012 33.9118 4.89612 34.0918C4.93212 34.2718 5.07612 34.4158 5.25612 34.4878C5.90412 34.7038 6.58812 34.8478 7.27212 34.8478C8.85612 34.8478 10.4041 34.2358 11.5201 33.0838C13.1761 31.4278 13.7161 28.9798 12.9241 26.7838L18.0001 21.6718L23.1121 26.7838C22.3201 28.9798 22.8241 31.4278 24.5161 33.0838C25.6681 34.2358 27.2161 34.8478 28.7641 34.8478C29.4481 34.8478 30.1321 34.7398 30.7801 34.4878C30.9601 34.4158 31.0681 34.2718 31.1401 34.0918C31.1761 33.9118 31.1401 33.7318 30.9961 33.5878L27.9001 30.4918L30.4561 27.9358L33.5521 31.0318C33.6961 31.1758 33.8761 31.2118 34.0561 31.1758C34.2361 31.1398 34.3801 30.9958 34.4521 30.8158C35.1721 28.6558 34.6321 26.2078 32.9761 24.5878ZM9.82812 11.9878C9.72012 11.8798 9.57612 11.8438 9.43212 11.8438C9.36012 11.8438 9.28812 11.8438 9.21612 11.8798C7.34412 12.7078 5.22012 12.2758 3.78012 10.8358C2.66412 9.71979 2.16012 8.09979 2.41212 6.55179L5.22012 9.35979C5.43612 9.57579 5.76012 9.57579 5.97612 9.35979L9.28812 6.04779C9.50412 5.83179 9.50412 5.50779 9.28812 5.29179L6.48012 2.48379C8.02812 2.23179 9.61212 2.73579 10.7641 3.85179C12.2041 5.29179 12.6001 7.41579 11.8081 9.28779C11.7361 9.50379 11.7721 9.71979 11.9161 9.89979L17.2801 15.2638L15.2281 17.3158L9.82812 11.9878ZM11.7721 26.8558C12.6001 28.7278 12.1681 30.8518 10.7281 32.2918C9.61212 33.4078 7.99212 33.9118 6.44412 33.6598L9.25212 30.8518C9.46812 30.6358 9.46812 30.3118 9.25212 30.0958L5.94012 26.7838C5.72412 26.5678 5.36412 26.5678 5.18412 26.7838L2.37612 29.5918C2.16012 28.0798 2.66412 26.4598 3.78012 25.3438C5.22012 23.9038 7.34412 23.5078 9.21612 24.2998C9.43212 24.3718 9.64812 24.3358 9.82812 24.1918L24.1201 9.89979C24.2641 9.75579 24.3361 9.50379 24.2281 9.28779C23.4001 7.41579 23.8321 5.29179 25.2721 3.85179C26.3881 2.73579 28.0081 2.23179 29.5561 2.48379L26.7481 5.29179C26.5321 5.50779 26.5321 5.83179 26.7481 6.04779L30.0601 9.35979C30.2761 9.57579 30.6001 9.57579 30.8161 9.35979L33.6241 6.55179C33.8761 8.09979 33.3721 9.68379 32.2561 10.8358C30.8161 12.2758 28.6921 12.6718 26.8201 11.8798C26.6041 11.8078 26.3881 11.8438 26.2081 11.9878L11.8801 26.2438C11.7361 26.4238 11.7001 26.6398 11.7721 26.8558ZM33.5881 29.6278L30.7801 26.8198C30.5641 26.6038 30.2041 26.6038 30.0241 26.8198L26.7121 30.1318C26.4961 30.3478 26.4961 30.6718 26.7121 30.8878L29.5201 33.6958C27.9721 33.9478 26.3881 33.4438 25.2361 32.3278C23.7961 30.8878 23.4001 28.7638 24.1921 26.8918C24.2641 26.6758 24.2281 26.4598 24.0841 26.2798L18.7561 20.9158L20.8081 18.8638L26.1721 24.2278C26.3161 24.3718 26.5681 24.4438 26.7841 24.3358C28.6561 23.5078 30.7801 23.9398 32.2201 25.3798C33.3361 26.4598 33.8401 28.0798 33.5881 29.6278Z"/>
</mask>
<path d="M32.9761 24.5878C31.3201 22.9318 28.8721 22.3918 26.6761 23.1838L21.6001 18.0718L26.7121 12.9598C28.9081 13.7518 31.3561 13.2478 33.0121 11.5558C34.6321 9.93579 35.2081 7.45179 34.4161 5.29179C34.3441 5.11179 34.2001 5.00379 34.0201 4.93179C33.8401 4.89579 33.6601 4.93179 33.5161 5.07579L30.4201 8.17179L27.8641 5.61579L30.9601 2.59179C31.1041 2.44779 31.1401 2.26779 31.1041 2.08779C31.0681 1.90779 30.9241 1.76379 30.7441 1.69179C28.5841 0.899788 26.1001 1.47579 24.4801 3.09579C22.8241 4.75179 22.2841 7.19979 23.0761 9.39579L18.0001 14.5078L12.8881 9.39579C13.7161 7.19979 13.1761 4.78779 11.5201 3.09579C9.90012 1.47579 7.41612 0.899788 5.25612 1.69179C5.07612 1.76379 4.96812 1.90779 4.89612 2.08779C4.82412 2.26779 4.89612 2.44779 5.04012 2.59179L8.13612 5.68779L5.58012 8.24379L2.48412 5.14779C2.34012 5.00379 2.16012 4.96779 1.98012 5.00379C1.80012 5.03979 1.65612 5.18379 1.58412 5.36379C0.792122 7.52379 1.36812 10.0078 2.98812 11.6278C4.64412 13.2838 7.09212 13.8238 9.28812 13.0318L14.4001 18.0718L9.32412 23.1838C7.12812 22.3918 4.68012 22.8958 3.02412 24.5878C1.40412 26.2078 0.828122 28.6918 1.62012 30.8518C1.69212 31.0318 1.83612 31.1398 2.01612 31.2118C2.19612 31.2478 2.37612 31.2118 2.52012 31.0678L5.61612 27.9718L8.17212 30.5278L5.04012 33.5878C4.89612 33.7318 4.86012 33.9118 4.89612 34.0918C4.93212 34.2718 5.07612 34.4158 5.25612 34.4878C5.90412 34.7038 6.58812 34.8478 7.27212 34.8478C8.85612 34.8478 10.4041 34.2358 11.5201 33.0838C13.1761 31.4278 13.7161 28.9798 12.9241 26.7838L18.0001 21.6718L23.1121 26.7838C22.3201 28.9798 22.8241 31.4278 24.5161 33.0838C25.6681 34.2358 27.2161 34.8478 28.7641 34.8478C29.4481 34.8478 30.1321 34.7398 30.7801 34.4878C30.9601 34.4158 31.0681 34.2718 31.1401 34.0918C31.1761 33.9118 31.1401 33.7318 30.9961 33.5878L27.9001 30.4918L30.4561 27.9358L33.5521 31.0318C33.6961 31.1758 33.8761 31.2118 34.0561 31.1758C34.2361 31.1398 34.3801 30.9958 34.4521 30.8158C35.1721 28.6558 34.6321 26.2078 32.9761 24.5878ZM9.82812 11.9878C9.72012 11.8798 9.57612 11.8438 9.43212 11.8438C9.36012 11.8438 9.28812 11.8438 9.21612 11.8798C7.34412 12.7078 5.22012 12.2758 3.78012 10.8358C2.66412 9.71979 2.16012 8.09979 2.41212 6.55179L5.22012 9.35979C5.43612 9.57579 5.76012 9.57579 5.97612 9.35979L9.28812 6.04779C9.50412 5.83179 9.50412 5.50779 9.28812 5.29179L6.48012 2.48379C8.02812 2.23179 9.61212 2.73579 10.7641 3.85179C12.2041 5.29179 12.6001 7.41579 11.8081 9.28779C11.7361 9.50379 11.7721 9.71979 11.9161 9.89979L17.2801 15.2638L15.2281 17.3158L9.82812 11.9878ZM11.7721 26.8558C12.6001 28.7278 12.1681 30.8518 10.7281 32.2918C9.61212 33.4078 7.99212 33.9118 6.44412 33.6598L9.25212 30.8518C9.46812 30.6358 9.46812 30.3118 9.25212 30.0958L5.94012 26.7838C5.72412 26.5678 5.36412 26.5678 5.18412 26.7838L2.37612 29.5918C2.16012 28.0798 2.66412 26.4598 3.78012 25.3438C5.22012 23.9038 7.34412 23.5078 9.21612 24.2998C9.43212 24.3718 9.64812 24.3358 9.82812 24.1918L24.1201 9.89979C24.2641 9.75579 24.3361 9.50379 24.2281 9.28779C23.4001 7.41579 23.8321 5.29179 25.2721 3.85179C26.3881 2.73579 28.0081 2.23179 29.5561 2.48379L26.7481 5.29179C26.5321 5.50779 26.5321 5.83179 26.7481 6.04779L30.0601 9.35979C30.2761 9.57579 30.6001 9.57579 30.8161 9.35979L33.6241 6.55179C33.8761 8.09979 33.3721 9.68379 32.2561 10.8358C30.8161 12.2758 28.6921 12.6718 26.8201 11.8798C26.6041 11.8078 26.3881 11.8438 26.2081 11.9878L11.8801 26.2438C11.7361 26.4238 11.7001 26.6398 11.7721 26.8558ZM33.5881 29.6278L30.7801 26.8198C30.5641 26.6038 30.2041 26.6038 30.0241 26.8198L26.7121 30.1318C26.4961 30.3478 26.4961 30.6718 26.7121 30.8878L29.5201 33.6958C27.9721 33.9478 26.3881 33.4438 25.2361 32.3278C23.7961 30.8878 23.4001 28.7638 24.1921 26.8918C24.2641 26.6758 24.2281 26.4598 24.0841 26.2798L18.7561 20.9158L20.8081 18.8638L26.1721 24.2278C26.3161 24.3718 26.5681 24.4438 26.7841 24.3358C28.6561 23.5078 30.7801 23.9398 32.2201 25.3798C33.3361 26.4598 33.8401 28.0798 33.5881 29.6278Z" fill="white"/>
<path d="M32.9761 24.5878C31.3201 22.9318 28.8721 22.3918 26.6761 23.1838L21.6001 18.0718L26.7121 12.9598C28.9081 13.7518 31.3561 13.2478 33.0121 11.5558C34.6321 9.93579 35.2081 7.45179 34.4161 5.29179C34.3441 5.11179 34.2001 5.00379 34.0201 4.93179C33.8401 4.89579 33.6601 4.93179 33.5161 5.07579L30.4201 8.17179L27.8641 5.61579L30.9601 2.59179C31.1041 2.44779 31.1401 2.26779 31.1041 2.08779C31.0681 1.90779 30.9241 1.76379 30.7441 1.69179C28.5841 0.899788 26.1001 1.47579 24.4801 3.09579C22.8241 4.75179 22.2841 7.19979 23.0761 9.39579L18.0001 14.5078L12.8881 9.39579C13.7161 7.19979 13.1761 4.78779 11.5201 3.09579C9.90012 1.47579 7.41612 0.899788 5.25612 1.69179C5.07612 1.76379 4.96812 1.90779 4.89612 2.08779C4.82412 2.26779 4.89612 2.44779 5.04012 2.59179L8.13612 5.68779L5.58012 8.24379L2.48412 5.14779C2.34012 5.00379 2.16012 4.96779 1.98012 5.00379C1.80012 5.03979 1.65612 5.18379 1.58412 5.36379C0.792122 7.52379 1.36812 10.0078 2.98812 11.6278C4.64412 13.2838 7.09212 13.8238 9.28812 13.0318L14.4001 18.0718L9.32412 23.1838C7.12812 22.3918 4.68012 22.8958 3.02412 24.5878C1.40412 26.2078 0.828122 28.6918 1.62012 30.8518C1.69212 31.0318 1.83612 31.1398 2.01612 31.2118C2.19612 31.2478 2.37612 31.2118 2.52012 31.0678L5.61612 27.9718L8.17212 30.5278L5.04012 33.5878C4.89612 33.7318 4.86012 33.9118 4.89612 34.0918C4.93212 34.2718 5.07612 34.4158 5.25612 34.4878C5.90412 34.7038 6.58812 34.8478 7.27212 34.8478C8.85612 34.8478 10.4041 34.2358 11.5201 33.0838C13.1761 31.4278 13.7161 28.9798 12.9241 26.7838L18.0001 21.6718L23.1121 26.7838C22.3201 28.9798 22.8241 31.4278 24.5161 33.0838C25.6681 34.2358 27.2161 34.8478 28.7641 34.8478C29.4481 34.8478 30.1321 34.7398 30.7801 34.4878C30.9601 34.4158 31.0681 34.2718 31.1401 34.0918C31.1761 33.9118 31.1401 33.7318 30.9961 33.5878L27.9001 30.4918L30.4561 27.9358L33.5521 31.0318C33.6961 31.1758 33.8761 31.2118 34.0561 31.1758C34.2361 31.1398 34.3801 30.9958 34.4521 30.8158C35.1721 28.6558 34.6321 26.2078 32.9761 24.5878ZM9.82812 11.9878C9.72012 11.8798 9.57612 11.8438 9.43212 11.8438C9.36012 11.8438 9.28812 11.8438 9.21612 11.8798C7.34412 12.7078 5.22012 12.2758 3.78012 10.8358C2.66412 9.71979 2.16012 8.09979 2.41212 6.55179L5.22012 9.35979C5.43612 9.57579 5.76012 9.57579 5.97612 9.35979L9.28812 6.04779C9.50412 5.83179 9.50412 5.50779 9.28812 5.29179L6.48012 2.48379C8.02812 2.23179 9.61212 2.73579 10.7641 3.85179C12.2041 5.29179 12.6001 7.41579 11.8081 9.28779C11.7361 9.50379 11.7721 9.71979 11.9161 9.89979L17.2801 15.2638L15.2281 17.3158L9.82812 11.9878ZM11.7721 26.8558C12.6001 28.7278 12.1681 30.8518 10.7281 32.2918C9.61212 33.4078 7.99212 33.9118 6.44412 33.6598L9.25212 30.8518C9.46812 30.6358 9.46812 30.3118 9.25212 30.0958L5.94012 26.7838C5.72412 26.5678 5.36412 26.5678 5.18412 26.7838L2.37612 29.5918C2.16012 28.0798 2.66412 26.4598 3.78012 25.3438C5.22012 23.9038 7.34412 23.5078 9.21612 24.2998C9.43212 24.3718 9.64812 24.3358 9.82812 24.1918L24.1201 9.89979C24.2641 9.75579 24.3361 9.50379 24.2281 9.28779C23.4001 7.41579 23.8321 5.29179 25.2721 3.85179C26.3881 2.73579 28.0081 2.23179 29.5561 2.48379L26.7481 5.29179C26.5321 5.50779 26.5321 5.83179 26.7481 6.04779L30.0601 9.35979C30.2761 9.57579 30.6001 9.57579 30.8161 9.35979L33.6241 6.55179C33.8761 8.09979 33.3721 9.68379 32.2561 10.8358C30.8161 12.2758 28.6921 12.6718 26.8201 11.8798C26.6041 11.8078 26.3881 11.8438 26.2081 11.9878L11.8801 26.2438C11.7361 26.4238 11.7001 26.6398 11.7721 26.8558ZM33.5881 29.6278L30.7801 26.8198C30.5641 26.6038 30.2041 26.6038 30.0241 26.8198L26.7121 30.1318C26.4961 30.3478 26.4961 30.6718 26.7121 30.8878L29.5201 33.6958C27.9721 33.9478 26.3881 33.4438 25.2361 32.3278C23.7961 30.8878 23.4001 28.7638 24.1921 26.8918C24.2641 26.6758 24.2281 26.4598 24.0841 26.2798L18.7561 20.9158L20.8081 18.8638L26.1721 24.2278C26.3161 24.3718 26.5681 24.4438 26.7841 24.3358C28.6561 23.5078 30.7801 23.9398 32.2201 25.3798C33.3361 26.4598 33.8401 28.0798 33.5881 29.6278Z" stroke="white" stroke-width="0.72" mask="url(#path-1-outside-1_17_3785)"/>
</g>
</g>
<defs>
<clipPath id="clip0_17_3785">
<rect width="36" height="36" fill="white"/>
</clipPath>
</defs>
</svg>
