<svg width="30" height="30" viewBox="0 0 30 30" fill="none" xmlns="http://www.w3.org/2000/svg">
<path d="M26.25 13.125C27.2841 13.125 28.125 12.2841 28.125 11.25V9.93472C28.125 9.24378 27.7472 8.61097 27.1378 8.28378L15.4444 1.98753C15.1678 1.83847 14.8331 1.83847 14.5566 1.98753L2.86219 8.28378C2.25375 8.61097 1.875 9.24378 1.875 9.93472V11.25C1.875 12.2841 2.71594 13.125 3.75 13.125H4.6875V22.5H3.75C2.71594 22.5 1.875 23.341 1.875 24.375V26.25C1.875 27.2841 2.71594 28.125 3.75 28.125H26.25C27.2841 28.125 28.125 27.2841 28.125 26.25V24.375C28.125 23.341 27.2841 22.5 26.25 22.5H25.3125V13.125H26.25ZM3.75 9.93472L15 3.87753L26.25 9.93472V11.25H3.75V9.93472ZM15.9375 22.5V13.125H18.75V22.5H15.9375ZM11.25 22.5V13.125H14.0625V22.5H11.25ZM6.5625 13.125H9.375V22.5H6.5625V13.125ZM26.2509 26.25H3.75V24.375H26.25L26.2509 26.25ZM23.4384 22.5H20.6259V13.125H23.4384V22.5Z" fill="white"/>
</svg>
