<svg width="36" height="36" viewBox="0 0 36 36" fill="none" xmlns="http://www.w3.org/2000/svg">
<path d="M22.1871 13.0538H21.3786C21.2141 12.5797 20.9833 12.1313 20.6931 11.7218H22.1871C22.4855 11.7218 22.7716 11.6033 22.9826 11.3923C23.1936 11.1813 23.3121 10.8952 23.3121 10.5968C23.3121 10.2985 23.1936 10.0123 22.9826 9.80133C22.7716 9.59035 22.4855 9.47182 22.1871 9.47182H16.4684C16.4271 9.47182 16.3874 9.46582 16.3454 9.46582H13.3701C13.0717 9.46582 12.7856 9.58435 12.5746 9.79533C12.3636 10.0063 12.2451 10.2925 12.2451 10.5908C12.2451 10.8892 12.3636 11.1753 12.5746 11.3863C12.7856 11.5973 13.0717 11.7158 13.3701 11.7158H16.3454C16.8452 11.7158 17.3375 11.8377 17.7796 12.0708C18.2217 12.304 18.6003 12.6414 18.8826 13.0538H13.4166C13.1182 13.0538 12.8321 13.1723 12.6211 13.3833C12.4101 13.5943 12.2916 13.8805 12.2916 14.1788C12.2916 14.4772 12.4101 14.7633 12.6211 14.9743C12.8321 15.1853 13.1182 15.3038 13.4166 15.3038H19.3754C19.256 16.0218 18.8862 16.6743 18.3315 17.1455C17.7769 17.6167 17.0732 17.8761 16.3454 17.8778H13.3701C13.1502 17.8779 12.9351 17.9424 12.7515 18.0634C12.5679 18.1845 12.4237 18.3566 12.3369 18.5587C12.2501 18.7607 12.2244 18.9838 12.263 19.2003C12.3016 19.4168 12.4028 19.6172 12.5541 19.7768L18.6366 26.1893C18.7372 26.3005 18.8591 26.3904 18.995 26.4539C19.1308 26.5173 19.278 26.5529 19.4279 26.5586C19.5777 26.5643 19.7272 26.54 19.8675 26.4871C20.0078 26.4342 20.1362 26.3538 20.2449 26.2506C20.3537 26.1474 20.4408 26.0235 20.501 25.8862C20.5612 25.7489 20.5934 25.6009 20.5956 25.451C20.5978 25.301 20.57 25.1522 20.5139 25.0131C20.4577 24.8741 20.3743 24.7477 20.2686 24.6413L15.9876 20.1278H16.3454C17.6709 20.1262 18.9484 19.6313 19.9293 18.7396C20.9101 17.848 21.524 16.6232 21.6516 15.3038H22.1871C22.4855 15.3038 22.7716 15.1853 22.9826 14.9743C23.1936 14.7633 23.3121 14.4772 23.3121 14.1788C23.3121 13.8805 23.1936 13.5943 22.9826 13.3833C22.7716 13.1723 22.4855 13.0538 22.1871 13.0538Z" fill="white"/>
<path d="M18 36C15.1595 35.9997 12.3594 35.3271 9.82855 34.0373C7.29775 32.7475 5.10813 30.877 3.43872 28.5789C1.7693 26.2807 0.667481 23.62 0.223345 20.8144C-0.220792 18.0088 0.00536275 15.138 0.883319 12.4365C1.76128 9.73508 3.26611 7.27977 5.27478 5.27134C7.28345 3.2629 9.73894 1.75835 12.4405 0.880714C15.142 0.00307444 18.0129 -0.222744 20.8185 0.221721C23.624 0.666187 26.2845 1.76832 28.5825 3.438C28.8238 3.61354 28.9855 3.87774 29.0319 4.17248C29.0784 4.46722 29.0059 4.76835 28.8304 5.00963C28.6548 5.25091 28.3906 5.41257 28.0959 5.45906C27.8012 5.50555 27.5 5.43304 27.2588 5.2575C24.1289 2.98636 20.2721 1.94779 16.425 2.34019C12.5779 2.73259 9.01015 4.52845 6.40328 7.38474C3.79641 10.241 2.3331 13.9575 2.29288 17.8244C2.25265 21.6912 3.63833 25.4374 6.18521 28.3473C8.7321 31.2572 12.2617 33.1269 16.0998 33.5992C19.9379 34.0716 23.8155 33.1135 26.9919 30.9079C30.1684 28.7024 32.421 25.404 33.3195 21.6428C34.2181 17.8815 33.6996 13.9211 31.863 10.518C31.7318 10.2565 31.7076 9.95415 31.7955 9.67509C31.8835 9.39603 32.0767 9.16223 32.3342 9.02328C32.5917 8.88434 32.8932 8.85118 33.1748 8.93085C33.4563 9.01051 33.6957 9.19673 33.8423 9.45C35.3208 12.1924 36.0625 15.2716 35.9947 18.3864C35.9269 21.5013 35.0521 24.5453 33.4556 27.2208C31.8591 29.8963 29.5957 32.1117 26.8867 33.6506C24.1776 35.1894 21.1156 35.9989 18 36Z" fill="white"/>
<path d="M30.8408 8.17508C30.6782 8.17529 30.5175 8.14027 30.3698 8.07242C30.2221 8.00458 30.0908 7.90552 29.985 7.78208L29.7825 7.54883C29.6822 7.43877 29.6048 7.30989 29.5547 7.16967C29.5045 7.02944 29.4827 6.88066 29.4906 6.73196C29.4984 6.58325 29.5356 6.43757 29.6002 6.30338C29.6647 6.16918 29.7553 6.04914 29.8666 5.9502C29.9779 5.85127 30.1077 5.77541 30.2485 5.72703C30.3894 5.67866 30.5384 5.65872 30.687 5.66839C30.8356 5.67805 30.9808 5.71712 31.1142 5.78333C31.2476 5.84953 31.3665 5.94156 31.464 6.05408L31.695 6.31883C31.8348 6.48221 31.9248 6.68222 31.9544 6.89517C31.984 7.10811 31.952 7.32509 31.8621 7.52039C31.7722 7.7157 31.6282 7.88116 31.4472 7.99719C31.2662 8.11322 31.0558 8.17495 30.8408 8.17508Z" fill="white"/>
</svg>
