<svg width="36" height="36" viewBox="0 0 36 36" fill="none" xmlns="http://www.w3.org/2000/svg">
<g id="fi_15919059">
<g id="Layer_x0020_1">
<path id="Vector" d="M7.95741 7.20605H28.5967C29.0314 7.20605 29.3941 7.51305 29.4799 7.9219C30.2915 10.9503 34.8002 25.6718 34.8002 27.8915C34.8002 28.3895 34.396 28.7936 33.8976 28.7936H2.10144C1.60299 28.7936 1.19885 28.3895 1.19885 27.8915C1.19885 20.692 10.1804 15.7311 16.6103 15.7311H17.2059V14.1282C17.2059 13.6303 17.61 13.2261 18.1084 13.2261H23.6725C24.1705 13.2261 24.5746 13.6303 24.5746 14.1282V15.7311H29.7067L28.8018 12.3547H10.1002C9.76022 12.3547 9.46408 12.1665 9.31034 11.8883L7.19959 8.59436C6.81243 7.99075 7.2543 7.207 7.95741 7.20794V7.20605ZM19.0106 15.7311H22.7704V15.0304H19.0106V15.7311ZM5.19306 22.6623H31.5638L30.1901 17.5353H16.6103C12.6472 17.5353 7.93666 19.5324 5.19306 22.6623ZM32.0471 24.4665H3.92076C3.4855 25.2677 3.18888 26.1132 3.06675 26.9889H32.7229L32.0471 24.4665ZM27.9058 9.01028H9.60508L10.5916 10.55H28.3184L27.9058 9.01028Z" fill="white"/>
</g>
</g>
</svg>
