<svg width="36" height="36" viewBox="0 0 36 36" fill="none" xmlns="http://www.w3.org/2000/svg">
<g id="fi_9316744">
<path id="Vector" d="M32.9609 25.5441V16.201L33.2276 16.0458C33.7934 15.7173 34.1309 15.1311 34.1309 14.4775C34.1309 13.8239 33.7934 13.2366 33.2276 12.9081L19.5509 4.96339C18.4001 4.29289 16.9679 4.29402 15.8171 4.96339L2.13931 12.9093C1.57456 13.2378 1.23706 13.8239 1.23706 14.4775C1.23706 15.1311 1.57456 15.7173 2.13931 16.0469L6.28606 18.4566V24.058C6.28606 25.3585 6.98581 26.5679 8.11081 27.217L13.8191 30.5076C15.0104 31.1939 16.3469 31.5381 17.6834 31.5381C19.0199 31.5381 20.3553 31.195 21.5478 30.5076L27.2549 27.217C28.3811 26.569 29.0808 25.3585 29.0808 24.058V18.4555L30.9359 17.3778V25.5441C30.4601 25.8681 30.1473 26.4138 30.1473 27.0336C30.1473 28.0281 30.9539 28.8348 31.9484 28.8348C32.9429 28.8348 33.7496 28.0281 33.7496 27.0336C33.7496 26.4149 33.4368 25.8693 32.9609 25.5441ZM27.0569 24.0569H27.0558C27.0558 24.6351 26.7464 25.1729 26.2447 25.4609L20.5376 28.7515C18.7781 29.7651 16.5899 29.7651 14.8316 28.7515L9.12331 25.4609C8.62269 25.1729 8.31219 24.6351 8.31219 24.0569V19.6323L15.8171 23.9928C16.3931 24.3269 17.0388 24.4945 17.6846 24.4945C18.3303 24.4945 18.9761 24.328 19.5521 23.9928L27.0569 19.6323V24.0569ZM18.5339 22.2423C18.0097 22.5471 17.3583 22.5471 16.8341 22.2423L3.47019 14.4775L16.8329 6.71277C17.3572 6.40789 18.0086 6.40789 18.5328 6.71277L31.8967 14.4764L18.5339 22.2423Z" fill="white"/>
</g>
</svg>
