<svg width="36" height="36" viewBox="0 0 36 36" fill="none" xmlns="http://www.w3.org/2000/svg">
<g id="fi_862032" clip-path="url(#clip0_17_3878)">
<g id="Vector">
<path d="M24.3037 16.931C24.3012 16.931 24.2988 16.931 24.2963 16.931H21.2815V13.9088C21.2856 13.2992 20.7947 12.8017 20.1852 12.7977C20.1827 12.7977 20.1802 12.7977 20.1778 12.7977H15.8222C15.2127 12.7977 14.7185 13.2918 14.7185 13.9014V16.9236H11.7037C11.0942 16.9195 10.5967 17.4103 10.5926 18.0198C10.5926 18.0248 10.5926 18.0297 10.5926 18.0347V22.3828C10.5926 22.9924 11.0868 23.4865 11.6963 23.4865H14.7185V26.5014C14.7144 27.1109 15.2053 27.6084 15.8148 27.6125C15.8173 27.6125 15.8198 27.6125 15.8222 27.6125H20.1704C20.7799 27.6125 21.2741 27.1183 21.2741 26.5088V23.4865H24.2963C24.9058 23.4906 25.4033 22.9998 25.4074 22.3903C25.4074 22.3878 25.4074 22.3853 25.4074 22.3828V18.0347C25.4074 17.4252 24.9133 16.931 24.3037 16.931ZM23.9259 22.0051H20.5407C20.1317 22.0051 19.8 22.3367 19.8 22.7458V26.131H16.2V22.7458C16.2 22.3367 15.8683 22.0051 15.4593 22.0051H12.0741V18.4125H15.4593C15.8683 18.4125 16.2 18.0808 16.2 17.6717V14.2791H19.7926V17.6643C19.7926 18.0734 20.1243 18.4051 20.5333 18.4051H23.9259V22.0051Z" fill="white"/>
<path d="M30.8889 7.25692H24.7852V4.64951C24.8236 3.4597 23.8902 2.46396 22.7004 2.42553C22.6397 2.42359 22.5791 2.42414 22.5185 2.42729H13.4815C12.2926 2.36534 11.2786 3.27886 11.2166 4.46766C11.2134 4.52822 11.2128 4.58886 11.2148 4.64951V7.24211H5.11111C2.75556 7.24211 0 8.58285 0 12.3532V28.4643C0 32.2347 2.75556 33.5754 5.11111 33.5754H30.8889C33.2444 33.5754 36 32.2347 36 28.4643V12.368C36 8.59766 33.2519 7.25692 30.8889 7.25692ZM12.6963 4.64951C12.6963 4.4347 12.6963 3.85692 13.4889 3.85692H22.5185C23.3111 3.85692 23.3111 4.42729 23.3111 4.64951V7.24211H12.6963V4.64951ZM34.5185 28.4643C34.5185 31.7384 31.9852 32.094 30.8889 32.094H5.11111C4.02222 32.094 1.48148 31.7384 1.48148 28.4643V12.368C1.48148 9.09396 4.01481 8.7384 5.11111 8.7384H30.8889C31.9778 8.7384 34.5185 9.09396 34.5185 12.368V28.4643Z" fill="white"/>
<path d="M24.3037 16.931C24.3012 16.931 24.2988 16.931 24.2963 16.931H21.2815V13.9088C21.2856 13.2992 20.7947 12.8017 20.1852 12.7977C20.1827 12.7977 20.1802 12.7977 20.1778 12.7977H15.8222C15.2127 12.7977 14.7185 13.2918 14.7185 13.9014V16.9236H11.7037C11.0942 16.9195 10.5967 17.4103 10.5926 18.0198C10.5926 18.0248 10.5926 18.0297 10.5926 18.0347V22.3828C10.5926 22.9924 11.0868 23.4865 11.6963 23.4865H14.7185V26.5014C14.7144 27.1109 15.2053 27.6084 15.8148 27.6125C15.8173 27.6125 15.8198 27.6125 15.8222 27.6125H20.1704C20.7799 27.6125 21.2741 27.1183 21.2741 26.5088V23.4865H24.2963C24.9058 23.4906 25.4033 22.9998 25.4074 22.3903C25.4074 22.3878 25.4074 22.3853 25.4074 22.3828V18.0347C25.4074 17.4252 24.9133 16.931 24.3037 16.931ZM23.9259 22.0051H20.5407C20.1317 22.0051 19.8 22.3367 19.8 22.7458V26.131H16.2V22.7458C16.2 22.3367 15.8683 22.0051 15.4593 22.0051H12.0741V18.4125H15.4593C15.8683 18.4125 16.2 18.0808 16.2 17.6717V14.2791H19.7926V17.6643C19.7926 18.0734 20.1243 18.4051 20.5333 18.4051H23.9259V22.0051Z" stroke="white" stroke-width="0.96"/>
<path d="M30.8889 7.25692H24.7852V4.64951C24.8236 3.4597 23.8902 2.46396 22.7004 2.42553C22.6397 2.42359 22.5791 2.42414 22.5185 2.42729H13.4815C12.2926 2.36534 11.2786 3.27886 11.2166 4.46766C11.2134 4.52822 11.2128 4.58886 11.2148 4.64951V7.24211H5.11111C2.75556 7.24211 0 8.58285 0 12.3532V28.4643C0 32.2347 2.75556 33.5754 5.11111 33.5754H30.8889C33.2444 33.5754 36 32.2347 36 28.4643V12.368C36 8.59766 33.2519 7.25692 30.8889 7.25692ZM12.6963 4.64951C12.6963 4.4347 12.6963 3.85692 13.4889 3.85692H22.5185C23.3111 3.85692 23.3111 4.42729 23.3111 4.64951V7.24211H12.6963V4.64951ZM34.5185 28.4643C34.5185 31.7384 31.9852 32.094 30.8889 32.094H5.11111C4.02222 32.094 1.48148 31.7384 1.48148 28.4643V12.368C1.48148 9.09396 4.01481 8.7384 5.11111 8.7384H30.8889C31.9778 8.7384 34.5185 9.09396 34.5185 12.368V28.4643Z" stroke="white" stroke-width="0.96"/>
</g>
</g>
<defs>
<clipPath id="clip0_17_3878">
<rect width="36" height="36" fill="white"/>
</clipPath>
</defs>
</svg>
