<svg width="36" height="36" viewBox="0 0 36 36" fill="none" xmlns="http://www.w3.org/2000/svg">
<g clip-path="url(#clip0_780_41276)">
<path d="M33.2542 9.76401L33.2536 9.7297C33.2366 8.8322 33.2205 7.98448 33.2205 7.16889C33.2205 5.93337 32.2154 4.92824 30.9798 4.92824C26.1993 4.92824 22.5711 3.56526 19.5615 0.638938C18.6855 -0.212932 17.3131 -0.213003 16.4373 0.638867C13.4278 3.56526 9.79993 4.92824 5.02012 4.92824C3.7846 4.92824 2.77947 5.93337 2.77947 7.16889C2.77947 8.00192 2.76309 8.85807 2.74573 9.76471C2.66488 13.9971 2.56427 19.2644 4.33192 24.0456C5.30387 26.6746 6.77554 28.9594 8.70607 30.8363C10.9048 32.9741 13.7847 34.6698 17.2653 35.8763C17.5021 35.9584 17.749 36 17.9993 36C18.2499 36 18.497 35.9583 18.7331 35.8764C22.2143 34.6697 25.0944 32.974 27.2933 30.8362C29.224 28.9592 30.6959 26.6744 31.6679 24.0452C33.4357 19.2637 33.3351 13.9964 33.2542 9.76401ZM29.6896 23.3139C27.8254 28.3558 24.0156 31.8132 18.0417 33.8838C18.0144 33.8932 17.9845 33.8934 17.9562 33.8836C11.9834 31.8133 8.17395 28.356 6.31005 23.3143C4.68055 18.9065 4.77286 14.0712 4.85435 9.80499C4.87192 8.88816 4.88851 8.02216 4.88851 7.16889C4.88851 7.0964 4.9475 7.03735 5.02005 7.03735C10.3842 7.03735 14.4793 5.48469 17.9076 2.15089C17.9333 2.12593 17.9663 2.11342 17.9992 2.11342C18.0322 2.11342 18.0653 2.126 18.091 2.15096C21.5196 5.48469 25.615 7.03735 30.9798 7.03735C31.0523 7.03735 31.1113 7.0964 31.1113 7.16889C31.1113 8.00452 31.1275 8.86194 31.1448 9.7697L31.1455 9.80415V9.80422C31.227 14.0705 31.3193 18.9059 29.6896 23.3139Z" fill="white"/>
<path d="M24.5525 14.4909H21.1593V11.0973C21.1593 10.5149 20.6871 10.0427 20.1047 10.0427H15.8959C15.3135 10.0427 14.8413 10.5149 14.8413 11.0973V14.4909H11.4475C10.8651 14.4909 10.3929 14.9631 10.3929 15.5455V19.7543C10.3929 20.3367 10.8651 20.8088 11.4475 20.8088H14.8413V24.2024C14.8413 24.7848 15.3135 25.2569 15.8959 25.2569H20.1047C20.6871 25.2569 21.1593 24.7848 21.1593 24.2024V20.8088H24.5525C25.1349 20.8088 25.6071 20.3367 25.6071 19.7543V15.5455C25.607 14.963 25.1349 14.4909 24.5525 14.4909ZM23.4979 18.6997H20.1047C19.5223 18.6997 19.0501 19.1719 19.0501 19.7543V23.1478H16.9505V19.7543C16.9505 19.1719 16.4783 18.6997 15.8959 18.6997H12.5021V16.6H15.8959C16.4783 16.6 16.9505 16.1279 16.9505 15.5455V12.1518H19.0501V15.5455C19.0501 16.1279 19.5223 16.6 20.1047 16.6H23.498V18.6997H23.4979Z" fill="white"/>
</g>
<defs>
<clipPath id="clip0_780_41276">
<rect width="36" height="36" fill="white"/>
</clipPath>
</defs>
</svg>
