<svg width="33" height="35" viewBox="0 0 33 35" fill="none" xmlns="http://www.w3.org/2000/svg">
<path fill-rule="evenodd" clip-rule="evenodd" d="M10.5552 0.823646C10.7224 0.574663 11.0026 0.425293 11.3025 0.425293H23.2072C23.5071 0.425293 23.7872 0.57466 23.9544 0.823639C24.1215 1.07262 24.1537 1.3885 24.0402 1.66606L21.9406 6.7984C24.708 9.52435 26.5516 11.8322 27.6648 14.3056C28.8439 16.9252 29.1671 19.6477 29.0237 23.1018C29.003 23.5984 28.5837 23.9843 28.0871 23.9637C27.5905 23.943 27.2046 23.5237 27.2252 23.0271C27.3622 19.7292 27.0458 17.3159 26.0234 15.0443C25.0233 12.8224 23.3133 10.6582 20.5125 7.91886H13.9198C11.8108 9.46482 9.61144 12.2121 8.1594 15.0991C7.41126 16.5865 6.88182 18.0718 6.65815 19.4059C6.43267 20.7508 6.53121 21.8575 6.93232 22.6635C7.15378 23.1085 6.97256 23.6487 6.52756 23.8702C6.08257 24.0916 5.5423 23.9104 5.32085 23.4654C4.68675 22.1913 4.62337 20.6565 4.88293 19.1083C5.1443 17.5493 5.74686 15.8898 6.55134 14.2903C8.02692 11.3565 10.2504 8.4918 12.5334 6.71099L10.4695 1.66607C10.3559 1.38851 10.3881 1.07263 10.5552 0.823646ZM14.236 6.11886H20.2738L21.8666 2.22529H12.6431L14.236 6.11886ZM11.9844 12.1947C11.9844 11.6977 12.3873 11.2947 12.8844 11.2947H21.1659C21.6629 11.2947 22.0659 11.6977 22.0659 12.1947C22.0659 12.6918 21.6629 13.0947 21.1659 13.0947H20.1403C20.313 13.3985 20.4436 13.7404 20.5234 14.1201H20.8604C21.3575 14.1201 21.7604 14.523 21.7604 15.0201C21.7604 15.5171 21.3575 15.9201 20.8604 15.9201H20.5304C20.4345 16.4135 20.2549 16.8613 19.989 17.2592C19.5717 17.8835 18.9851 18.3203 18.3254 18.6239C17.5269 18.9914 16.573 19.1848 15.5577 19.2784C16.6915 20.4428 18.0477 21.4523 19.5991 22.2676C20.0391 22.4989 20.2083 23.043 19.977 23.483C19.7458 23.923 19.2016 24.0922 18.7616 23.861C16.4119 22.626 14.4405 20.9724 12.9472 18.9982C12.7412 18.7258 12.7071 18.3602 12.8592 18.0544C13.0113 17.7486 13.3234 17.5553 13.665 17.5553C15.3301 17.5553 16.6713 17.4037 17.5729 16.9888C18.0053 16.7898 18.3007 16.5459 18.4925 16.259C18.5586 16.16 18.6177 16.048 18.6666 15.9201H13.1219C12.6249 15.9201 12.2219 15.5171 12.2219 15.0201C12.2219 14.523 12.6249 14.1201 13.1219 14.1201H18.6441C18.5263 13.8564 18.3579 13.6686 18.1746 13.5293C17.7914 13.238 17.2519 13.0947 16.7197 13.0947H12.8844C12.3873 13.0947 11.9844 12.6918 11.9844 12.1947ZM21.7842 27.1226L28.7612 25.1765C28.7612 25.1765 28.7612 25.1765 28.7612 25.1765C29.4251 24.9913 30.1336 25.0538 30.7548 25.3524C32.5912 26.235 32.9679 28.7838 31.2551 30.0552C27.8026 32.6178 24.453 34.2618 20.7613 34.607C17.147 34.945 13.3209 34.0276 8.87962 31.7165L3.48844 32.9606C2.44448 33.2016 1.40359 32.5484 1.16619 31.5038L0.329129 27.8208C0.0942765 26.7874 0.736808 25.7508 1.7766 25.512C6.06008 24.5285 9.4305 24.0555 12.5987 24.2974C15.6854 24.533 18.5211 25.4422 21.7842 27.1226ZM21.2282 28.8623C17.9995 27.1689 15.3292 26.3111 12.4617 26.0921C9.5649 25.871 6.40409 26.2964 2.17941 27.2664C2.114 27.2814 2.06789 27.3494 2.08437 27.4219L2.92143 31.1049C2.93804 31.1779 3.01082 31.2235 3.08363 31.2067L8.80038 29.8875C9.01165 29.8387 9.23342 29.8679 9.42491 29.9696C13.7953 32.2908 17.3561 33.1176 20.5937 32.8148C23.8348 32.5118 26.8735 31.0658 30.1823 28.6098C30.7312 28.2023 30.6775 27.3124 29.9751 26.9748C29.7476 26.8654 29.4881 26.8425 29.2449 26.9103L23.2199 28.5909C23.3801 29.0592 23.389 29.5794 23.2195 30.0738C22.8259 31.2221 21.6041 31.8629 20.4358 31.5342L13.4175 29.5604C12.939 29.4258 12.6602 28.9288 12.7947 28.4503C12.9293 27.9718 13.4263 27.693 13.9048 27.8276L20.9231 29.8015C21.1724 29.8716 21.4328 29.7348 21.5167 29.4901C21.5892 29.2786 21.5087 29.0447 21.3212 28.9228L21.2282 28.8623Z" fill="white"/>
</svg>
