<svg width="36" height="36" viewBox="0 0 36 36" fill="none" xmlns="http://www.w3.org/2000/svg">
<g id="fi_5254107">
<path id="Vector" d="M2.95773 6.72606C3.26832 7.05459 3.46975 7.47111 3.53441 7.91856L5.44511 25.2753C5.53135 25.96 5.82514 26.6019 6.28698 27.1147C6.74882 27.6275 7.35658 27.9866 8.02856 28.1438L8.02473 28.1823C8.02137 29.3668 8.48575 30.5049 9.31691 31.3489C10.1481 32.1929 11.2788 32.6747 12.4633 32.6895C13.6478 32.7043 14.7902 32.251 15.6422 31.428C16.4942 30.6051 16.987 29.4791 17.0133 28.2948H21.5358C21.562 29.4791 22.0548 30.6051 22.9068 31.428C23.7588 32.251 24.9012 32.7043 26.0857 32.6895C27.2702 32.6747 28.4009 32.1929 29.2321 31.3489C30.0633 30.5049 30.5276 29.3668 30.5243 28.1823L30.5216 28.1564C31.2011 28.0128 31.819 27.6612 32.2896 27.1505C32.7603 26.6397 33.0602 25.9951 33.1478 25.3061L34.8596 11.6808C34.9166 11.2018 34.8714 10.7162 34.727 10.2559C34.5826 9.79564 34.3423 9.3712 34.022 9.01057C33.7016 8.64995 33.3084 8.36131 32.8684 8.1637C32.4284 7.96608 31.9514 7.86398 31.4691 7.86411H5.79566L5.76461 7.62471C5.63463 6.69332 5.214 5.8267 4.56266 5.14836L3.03266 3.64086C2.81995 3.43135 2.53272 3.31491 2.23417 3.31717C1.93561 3.31943 1.65018 3.44019 1.44067 3.6529C1.23115 3.86561 1.11472 4.15283 1.11698 4.45139C1.11923 4.74994 1.24 5.03537 1.45271 5.24489L2.95773 6.72606ZM12.5245 30.4323C12.0795 30.4323 11.6445 30.3003 11.2745 30.0531C10.9045 29.8059 10.6161 29.4545 10.4458 29.0433C10.2755 28.6322 10.2309 28.1798 10.3177 27.7433C10.4046 27.3069 10.6188 26.906 10.9335 26.5913C11.2482 26.2766 11.6491 26.0623 12.0856 25.9755C12.522 25.8887 12.9744 25.9333 13.3855 26.1036C13.7967 26.2739 14.1481 26.5622 14.3953 26.9323C14.6425 27.3023 14.7745 27.7373 14.7745 28.1823C14.7739 28.7788 14.5367 29.3508 14.1148 29.7726C13.693 30.1944 13.1211 30.4317 12.5245 30.4323ZM26.0245 30.4323C25.5795 30.4323 25.1445 30.3003 24.7745 30.0531C24.4045 29.8059 24.1161 29.4545 23.9458 29.0433C23.7755 28.6322 23.7309 28.1798 23.8177 27.7433C23.9046 27.3069 24.1188 26.906 24.4335 26.5913C24.7482 26.2766 25.1491 26.0623 25.5855 25.9755C26.022 25.8887 26.4744 25.9333 26.8855 26.1036C27.2967 26.2739 27.6481 26.5622 27.8953 26.9323C28.1425 27.3023 28.2745 27.7373 28.2745 28.1823C28.2739 28.7788 28.0367 29.3508 27.6148 29.7726C27.193 30.1944 26.6211 30.4317 26.0245 30.4323ZM32.3351 10.5009C32.4455 10.6236 32.5286 10.7683 32.5788 10.9255C32.629 11.0828 32.6451 11.2489 32.6262 11.4128L30.9151 25.0359C30.8844 25.2835 30.7724 25.514 30.5966 25.6911C30.4208 25.8681 30.1912 25.9819 29.9438 26.0144C29.5595 25.3067 28.9908 24.7162 28.2979 24.3057C27.605 23.8953 26.8139 23.6802 26.0086 23.6832C25.2033 23.6863 24.4138 23.9074 23.7241 24.3232C23.0344 24.7389 22.4701 25.3337 22.0913 26.0443H16.4593C16.0811 25.3344 15.5179 24.7401 14.8293 24.3242C14.1408 23.9084 13.3525 23.6866 12.5482 23.6824C11.7438 23.6781 10.9533 23.8915 10.2604 24.3C9.56743 24.7085 8.99793 25.2969 8.61221 26.0027C8.37325 25.9588 8.15437 25.8403 7.987 25.6642C7.81963 25.4881 7.71239 25.2635 7.68071 25.0226L6.06071 10.1141H31.4693C31.6329 10.1127 31.7949 10.1465 31.9443 10.2133C32.0937 10.28 32.227 10.3781 32.3351 10.5009Z" fill="white"/>
<path id="Vector_2" d="M25.875 22.4429C26.1734 22.4429 26.4595 22.3243 26.6705 22.1134C26.8815 21.9024 27 21.6162 27 21.3179V14.5679C27 14.2695 26.8815 13.9834 26.6705 13.7724C26.4595 13.5614 26.1734 13.4429 25.875 13.4429C25.5766 13.4429 25.2905 13.5614 25.0795 13.7724C24.8685 13.9834 24.75 14.2695 24.75 14.5679V21.3179C24.75 21.6162 24.8685 21.9024 25.0795 22.1134C25.2905 22.3243 25.5766 22.4429 25.875 22.4429Z" fill="white"/>
<path id="Vector_3" d="M19.125 22.4429C19.4234 22.4429 19.7095 22.3243 19.9205 22.1134C20.1315 21.9024 20.25 21.6162 20.25 21.3179V14.5679C20.25 14.2695 20.1315 13.9834 19.9205 13.7724C19.7095 13.5614 19.4234 13.4429 19.125 13.4429C18.8266 13.4429 18.5405 13.5614 18.3295 13.7724C18.1185 13.9834 18 14.2695 18 14.5679V21.3179C18 21.6162 18.1185 21.9024 18.3295 22.1134C18.5405 22.3243 18.8266 22.4429 19.125 22.4429Z" fill="white"/>
<path id="Vector_4" d="M12.375 22.4429C12.6734 22.4429 12.9595 22.3243 13.1705 22.1134C13.3815 21.9024 13.5 21.6162 13.5 21.3179V14.5679C13.5 14.2695 13.3815 13.9834 13.1705 13.7724C12.9595 13.5614 12.6734 13.4429 12.375 13.4429C12.0766 13.4429 11.7905 13.5614 11.5795 13.7724C11.3685 13.9834 11.25 14.2695 11.25 14.5679V21.3179C11.25 21.6162 11.3685 21.9024 11.5795 22.1134C11.7905 22.3243 12.0766 22.4429 12.375 22.4429Z" fill="white"/>
</g>
</svg>
