<svg width="36" height="36" viewBox="0 0 36 36" fill="none" xmlns="http://www.w3.org/2000/svg">
<g id="fi_15737372" clip-path="url(#clip0_331_2108)">
<path id="Vector" d="M35.4365 9.8818C35.4365 9.74104 35.4088 9.59978 35.3518 9.46654L32.6968 3.26757C32.1811 2.06432 31.0986 1.31689 29.8717 1.31689H6.25479C5.03396 1.31689 3.9799 2.03971 3.43491 3.2514L0.654332 9.45015C0.592527 9.58804 0.562363 9.7352 0.562363 9.8818H0.562012V12.3453C0.562012 14.331 1.69221 16.0566 3.34252 16.9159V31.8285C3.34252 33.4025 4.62305 34.6831 6.197 34.6831H29.9276C31.5016 34.6831 32.7822 33.4025 32.7822 31.8285V16.8495C34.364 15.9695 35.4371 14.2808 35.4371 12.3454V9.88187H35.4366L35.4365 9.8818ZM5.35908 4.11568C5.47489 3.8582 5.74531 3.4262 6.25479 3.4262H29.8718C30.3922 3.4262 30.6504 3.84744 30.758 4.09825L32.7833 8.82704H3.2457L5.35908 4.11568ZM5.45189 31.8284V29.4429H13.3959V32.5736H6.19693C5.79305 32.5736 5.45189 32.2324 5.45189 31.8284ZM20.6192 32.5736H15.5054V21.6517H20.6192V32.5736ZM29.9276 32.5736H22.7286V29.4429H30.6727V31.8284C30.6727 32.2324 30.3314 32.5736 29.9275 32.5736H29.9276ZM30.6728 27.3336H22.7287V21.0714C22.7287 20.2283 22.0427 19.5423 21.1996 19.5423H14.9271C14.0829 19.5423 13.3961 20.2282 13.3961 21.0714V27.3336H5.45203V17.4893C5.53845 17.4937 5.62536 17.4959 5.71282 17.4959C7.38127 17.4959 8.86683 16.6986 9.80874 15.4649C10.7506 16.6986 12.2362 17.4959 13.9047 17.4959C15.5732 17.4959 17.0587 16.6986 18.0006 15.4649C18.9425 16.6986 20.4281 17.4959 22.0966 17.4959C23.7651 17.4959 25.2507 16.6986 26.1926 15.4649C27.1345 16.6986 28.6201 17.4959 30.2885 17.4959C30.418 17.4959 30.5459 17.4895 30.6729 17.4801V27.3336H30.6728ZM30.2884 15.3866C28.6114 15.3866 27.2472 14.0223 27.2472 12.3453C27.2472 11.7629 26.7749 11.2907 26.1925 11.2907C25.61 11.2907 25.1378 11.7629 25.1378 12.3453C25.1378 14.0223 23.7735 15.3866 22.0965 15.3866C20.4195 15.3866 19.0552 14.0223 19.0552 12.3453C19.0552 11.7629 18.583 11.2907 18.0005 11.2907C17.418 11.2907 16.9458 11.7629 16.9458 12.3453C16.9458 14.0223 15.5815 15.3866 13.9046 15.3866C12.2276 15.3866 10.8633 14.0223 10.8633 12.3453C10.8633 11.7629 10.3911 11.2907 9.8086 11.2907C9.22613 11.2907 8.75391 11.7629 8.75391 12.3453C8.75391 14.0223 7.38964 15.3866 5.71268 15.3866C4.03573 15.3866 2.67139 14.0223 2.67139 12.3453V10.9365H33.3276V12.3453C33.3276 14.0223 31.9642 15.3866 30.2883 15.3866H30.2884Z" fill="white"/>
</g>
<defs>
<clipPath id="clip0_331_2108">
<rect width="36" height="36" fill="white" transform="translate(-0.000244141)"/>
</clipPath>
</defs>
</svg>
