<svg width="36" height="36" viewBox="0 0 36 36" fill="none" xmlns="http://www.w3.org/2000/svg">
<g id="fi_16868025">
<g id="Travel Location">
<path id="Vector" d="M15.1053 11.8176C14.8618 11.8086 14.6196 11.8565 14.3979 11.9575C14.1761 12.0586 13.981 12.2101 13.828 12.3999L13.8278 12.4002L10.2471 16.8617C9.96627 15.7666 9.92062 14.623 10.1147 13.5066C10.3287 12.2763 10.8278 11.1132 11.5722 10.1105C12.3167 9.10782 13.2856 8.29348 14.4014 7.73274C15.5173 7.172 16.749 6.88046 17.9978 6.88149L17.9983 6.88149C19.3557 6.87836 20.6915 7.22144 21.8795 7.8783C23.0674 8.53516 24.0682 9.48409 24.7872 10.6354C25.5063 11.7867 25.9199 13.1024 25.9889 14.4581C26.0527 15.7097 25.8208 16.9573 25.3138 18.1003L23.1698 14.9638C23.1697 14.9636 23.1696 14.9635 23.1695 14.9633C23.0327 14.7613 22.8501 14.5944 22.6365 14.4764C22.4228 14.3583 22.1842 14.2924 21.9402 14.2842L21.9399 14.2842C21.6969 14.2763 21.4553 14.3248 21.234 14.4257C21.0127 14.5266 20.8178 14.6773 20.6643 14.866L20.6636 14.8669L19.2003 16.69L16.3345 12.4974C16.3344 12.4972 16.3344 12.4971 16.3343 12.497C16.1975 12.2949 16.0149 12.1281 15.8013 12.01C15.5877 11.8919 15.3492 11.826 15.1053 11.8176ZM15.1053 11.8176C15.1054 11.8176 15.1055 11.8176 15.1056 11.8176L15.0989 11.9975L15.105 11.8176C15.1051 11.8176 15.1052 11.8176 15.1053 11.8176ZM22.6925 23.1993L22.6994 23.1954L22.706 23.1909C22.7198 23.1814 22.7305 23.1717 22.7382 23.1639C24.0596 22.404 25.1814 21.3407 26.011 20.0616C26.0391 20.0241 26.0636 19.984 26.0842 19.942C26.9585 18.5485 27.458 16.9528 27.5342 15.3094C27.6105 13.6626 27.2592 12.0241 26.5145 10.5534C25.7697 9.08269 24.6569 7.82984 23.2843 6.9168C21.9117 6.00375 20.3261 5.46164 18.6818 5.34321C17.0375 5.22478 15.3905 5.53407 13.9013 6.24099C12.412 6.9479 11.1311 8.02835 10.1833 9.37717C9.23542 10.726 8.65294 12.2972 8.49252 13.9379C8.33223 15.5773 8.59873 17.2302 9.2661 18.736C9.27918 18.7693 9.29463 18.8017 9.31234 18.8328C9.85435 20.0313 10.6387 21.1046 11.616 21.985C12.5955 22.8675 13.7476 23.5371 14.9993 23.9514C16.2509 24.3656 17.575 24.5156 18.8876 24.3917C20.1967 24.2682 21.466 23.875 22.6157 23.2369C22.642 23.2259 22.6676 23.2133 22.6925 23.1993ZM15.0402 13.3669L15.0402 13.3669C15.042 13.3661 15.0439 13.3657 15.0459 13.3658L15.0473 13.3659C15.0486 13.3659 15.0499 13.3662 15.0511 13.3669C15.0522 13.3675 15.0532 13.3684 15.0539 13.3695L15.0539 13.3695L15.0548 13.3709L21.1191 22.2423C19.2803 23.0292 17.2096 23.0963 15.32 22.4251C13.399 21.7427 11.8143 20.3503 10.89 18.5365L15.0357 13.3704C15.0357 13.3704 15.0357 13.3704 15.0358 13.3703C15.037 13.3689 15.0385 13.3677 15.0402 13.3669ZM21.8718 15.8367L21.8718 15.8367L21.874 15.8338C21.8744 15.8333 21.875 15.8329 21.8756 15.8326C21.8757 15.8326 21.8759 15.8325 21.8761 15.8324C21.8765 15.8323 21.877 15.8323 21.8775 15.8323L21.8775 15.8324L21.883 15.8325C21.8844 15.8326 21.8857 15.8329 21.8868 15.8336C21.888 15.8342 21.889 15.8351 21.8897 15.8362L21.8906 15.8375L24.4562 19.5906C23.9131 20.334 23.2466 20.9787 22.4859 21.4968L20.1142 18.027L21.8718 15.8367Z" fill="white" stroke="white" stroke-width="0.36"/>
<path id="Vector_2" d="M17.9988 1.25604C14.3934 1.25292 10.934 2.68003 8.37943 5.2243C5.82486 7.7686 4.38384 11.2223 4.37249 14.8277V14.8283C4.37249 19.5102 6.94359 24.483 9.9062 28.2741C11.3897 30.1724 12.9779 31.7829 14.4045 32.9207C15.1177 33.4895 15.7936 33.9427 16.3986 34.2546C16.9999 34.5645 17.5473 34.7433 17.9988 34.7433C18.4503 34.7433 18.9977 34.5645 19.5989 34.2546C20.2039 33.9427 20.8798 33.4895 21.593 32.9207C23.0197 31.7829 24.6078 30.1724 26.0913 28.2741C29.0539 24.483 31.625 19.5102 31.625 14.8283L31.625 14.8277C31.6137 11.2223 30.1727 7.7686 27.6181 5.2243C25.0636 2.68003 21.6042 1.25292 17.9988 1.25604ZM17.9988 1.25604C17.9987 1.25604 17.9987 1.25604 17.9986 1.25604L17.9988 1.43604L17.9989 1.25604C17.9989 1.25604 17.9988 1.25604 17.9988 1.25604ZM17.9988 33.194C17.7413 33.194 17.3542 33.06 16.8568 32.7757C16.3661 32.4953 15.7909 32.0822 15.1641 31.5553C13.9109 30.5019 12.4641 29.0045 11.0922 27.2359C8.34349 23.6924 5.92199 19.0956 5.92183 14.8287C5.936 11.635 7.21458 8.57702 9.47783 6.32372C11.7412 4.07033 14.8049 2.80522 17.9988 2.80522C21.1926 2.80522 24.2564 4.07033 26.5197 6.32372C28.7829 8.57701 30.0615 11.635 30.0757 14.8286C30.0756 19.0955 27.654 23.6924 24.9053 27.2359C23.5334 29.0045 22.0866 30.5019 20.8335 31.5553C20.2066 32.0822 19.6314 32.4953 19.1407 32.7757C18.6433 33.06 18.2562 33.194 17.9988 33.194Z" fill="white" stroke="white" stroke-width="0.36"/>
<path id="Vector_3" d="M20.3202 13.7491H20.3204C20.7846 13.749 21.2383 13.6113 21.6242 13.3534C22.0101 13.0954 22.3109 12.7289 22.4885 12.3C22.6661 11.8711 22.7125 11.3993 22.6219 10.944C22.5313 10.4888 22.3077 10.0706 21.9795 9.7424C21.6513 9.4142 21.2331 9.19071 20.7778 9.10018C20.3225 9.00965 19.8507 9.05615 19.4218 9.23379C18.993 9.41144 18.6265 9.71226 18.3686 10.0982C18.1107 10.4842 17.9731 10.9379 17.9731 11.4021L17.9731 11.4023C17.9738 12.0245 18.2213 12.6211 18.6613 13.061C19.1014 13.501 19.6979 13.7484 20.3202 13.7491ZM20.3203 10.6044C20.4781 10.6045 20.6322 10.6513 20.7634 10.739C20.8945 10.8266 20.9967 10.9512 21.057 11.097C21.1174 11.2427 21.1331 11.4031 21.1023 11.5578C21.0715 11.7125 20.9955 11.8546 20.884 11.9661C20.7724 12.0777 20.6303 12.1536 20.4756 12.1844C20.3209 12.2151 20.1605 12.1993 20.0148 12.1389C19.869 12.0786 19.7445 11.9763 19.6568 11.8452C19.5692 11.714 19.5224 11.5598 19.5224 11.402H19.3424L19.5224 11.4022C19.5226 11.1906 19.6068 10.9878 19.7564 10.8382C19.906 10.6886 20.1089 10.6045 20.3205 10.6044L20.3204 10.4244L20.3203 10.6044Z" fill="white" stroke="white" stroke-width="0.36"/>
</g>
</g>
</svg>
